<svg width="68" height="25" viewBox="0 0 68 25" fill="none" xmlns="http://www.w3.org/2000/svg">
<path d="M55.5273 0.343506C52.8404 0.343506 50.3454 1.23652 48.311 2.75078C46.2766 1.23652 43.7816 0.343506 41.0947 0.343506C38.4078 0.343506 35.9128 1.23652 33.8784 2.75078C31.844 1.23652 29.3874 0.343506 26.6621 0.343506C23.9752 0.343506 21.4802 1.23652 19.4458 2.75078C17.4498 1.23652 14.9548 0.343506 12.2295 0.343506C5.58898 0.343506 0.176758 5.74044 0.176758 12.3798C0.176758 19.0192 5.58898 24.4161 12.2295 24.4161C14.9164 24.4161 17.4114 23.5231 19.4458 22.0089C21.4802 23.5231 23.9752 24.4161 26.6621 24.4161C29.349 24.4161 31.844 23.5231 33.8784 22.0089C35.8744 23.5231 38.3694 24.4161 41.0947 24.4161C43.7816 24.4161 46.2766 23.5231 48.311 22.0089C50.307 23.5231 52.802 24.4161 55.5273 24.4161C62.1679 24.4161 67.5801 19.0192 67.5801 12.3798C67.5801 5.74044 62.1679 0.343506 55.5273 0.343506ZM48.311 18.5921C46.8524 16.9226 45.9696 14.7483 45.9696 12.3798C45.9696 10.0114 46.8524 7.83709 48.311 6.16753C49.7696 7.83709 50.6525 10.0114 50.6525 12.3798C50.6525 14.7483 49.7696 16.9226 48.311 18.5921ZM33.8784 18.5921C32.4198 16.9226 31.537 14.7483 31.537 12.3798C31.537 10.0114 32.4198 7.83709 33.8784 6.16753C35.337 7.83709 36.2199 10.0114 36.2199 12.3798C36.2199 14.7483 35.337 16.9226 33.8784 18.5921ZM19.4458 18.5921C17.9872 16.9226 17.1044 14.7483 17.1044 12.3798C17.1044 10.0114 17.9872 7.83709 19.4458 6.16753C20.9044 7.83709 21.7873 10.0114 21.7873 12.3798C21.8257 14.7483 20.9044 16.9226 19.4458 18.5921ZM2.67175 12.3798C2.67175 7.1382 6.97082 2.86725 12.2295 2.86725C14.1871 2.86725 16.0296 3.44966 17.565 4.49798C15.7225 6.59462 14.6094 9.35133 14.6094 12.3798C14.6094 15.4083 15.7225 18.165 17.565 20.2617C16.0296 21.2712 14.2255 21.8924 12.2295 21.8924C6.97082 21.8924 2.67175 17.6214 2.67175 12.3798ZM21.3267 20.2617C23.1691 18.165 24.2823 15.4083 24.2823 12.3798C24.2823 9.35133 23.1691 6.59462 21.3267 4.49798C22.862 3.48847 24.6661 2.86725 26.6621 2.86725C28.6581 2.86725 30.4622 3.44966 31.9976 4.49798C30.1551 6.59462 29.0036 9.35133 29.0036 12.3798C29.0036 15.4083 30.1167 18.165 31.9976 20.2617C30.4622 21.2712 28.6581 21.8924 26.6621 21.8924C24.7045 21.8924 22.862 21.2712 21.3267 20.2617ZM35.7593 20.2617C37.6017 18.165 38.7533 15.4083 38.7533 12.3798C38.7533 9.35133 37.6401 6.59462 35.7593 4.49798C37.2946 3.48847 39.0987 2.86725 41.0947 2.86725C43.0907 2.86725 44.8948 3.44966 46.4302 4.49798C44.5877 6.59462 43.4362 9.35133 43.4362 12.3798C43.4362 15.4083 44.5493 18.165 46.4302 20.2617C44.8948 21.2712 43.0907 21.8924 41.0947 21.8924C39.0987 21.8924 37.2946 21.2712 35.7593 20.2617ZM55.5273 21.8924C53.5697 21.8924 51.7273 21.31 50.1919 20.2617C52.0343 18.165 53.1859 15.4083 53.1859 12.3798C53.1859 9.35133 52.0727 6.59462 50.1919 4.49798C51.7273 3.48847 53.5313 2.86725 55.5273 2.86725C60.786 2.86725 65.0851 7.1382 65.0851 12.3798C65.0851 17.6214 60.786 21.8924 55.5273 21.8924Z" fill="black"/>
</svg>
