<svg width="115" height="28" viewBox="0 0 115 28" fill="none" xmlns="http://www.w3.org/2000/svg">
<path d="M15.5251 0.794189C17.6963 0.794189 19.2119 2.10493 19.2119 4.89047C19.2119 7.67579 17.6963 8.74088 15.5251 8.74088H9.17597V11.4444H13.3951C15.5661 11.4444 17.3276 12.0998 17.3276 14.8853C17.3276 17.6708 15.5251 18.367 13.3951 18.367H9.17597V23.2007C9.17597 25.9042 8.02903 27.0101 5.12068 27.0101H4.3424C1.31118 27.0101 0.287109 25.9042 0.287109 23.2007V4.68561C0.287109 1.90007 1.43405 0.835206 4.3424 0.835206H15.5251V0.794189Z" fill="#EF4046"/>
<path d="M24.6996 10.1341C27.8536 10.1341 28.7548 11.2402 28.7548 13.9437V23.2012C28.7548 25.9047 27.8536 27.0108 24.6996 27.0108H24.5765C21.4225 27.0108 20.5213 25.9047 20.5213 23.2012V13.9437C20.5213 11.2402 21.4225 10.1341 24.5765 10.1341H24.6996ZM28.9187 4.97297C28.9187 7.7993 27.0344 8.86439 24.6175 8.86439C22.2417 8.86439 20.3984 7.75829 20.3984 4.97297C20.3984 2.14641 22.2417 0.999512 24.6175 0.999512C27.0754 0.999512 28.9187 2.14641 28.9187 4.97297Z" fill="#EF4046"/>
<path d="M48.0476 10.4613C48.0476 11.7313 47.5151 12.96 46.2044 13.6156C45.3849 13.2059 43.9104 12.7143 42.3948 12.7143C41.084 12.7143 40.2238 12.8782 40.2238 13.4925C40.2238 14.1071 40.9202 14.4348 42.8453 14.9263C46.532 15.9094 48.4571 17.6298 48.4571 20.4972C48.4571 24.9622 43.9514 27.2149 39.2407 27.2149C34.0794 27.2149 30.5156 25.8224 30.5156 23.2007C30.5156 21.0707 31.3759 20.0875 32.3999 19.7598C33.1373 20.2105 35.3083 21.0297 37.2744 21.0297C39.1177 21.0297 39.4046 20.62 39.4046 20.1285C39.4046 19.637 38.6672 19.3503 36.1685 18.6539C33.2191 17.8347 31.253 16.2781 31.253 12.8782C31.253 8.61806 35.1444 5.91455 40.3466 5.91455C45.0983 5.91455 48.0476 7.635 48.0476 10.4613Z" fill="#EF4046"/>
<path d="M54.5572 0.835206C57.7112 0.835206 58.6125 1.94109 58.6125 4.6446V10.4203C59.186 8.45421 60.6606 5.83251 64.4702 5.83251C67.5424 5.83251 70.4916 7.92166 70.4916 13.4107V23.1189C70.4916 25.8632 69.3447 26.9693 66.3953 26.9693H66.1087C63.528 26.9693 62.2172 25.8632 62.2172 23.1189V16.0322C62.2172 14.5986 61.5209 14.0661 60.5788 14.0661C59.4317 14.0661 58.7353 15.1312 58.6535 17.1383V23.1189C58.6535 25.8224 57.7523 26.9283 54.5982 26.9283H54.4754C51.3212 26.9283 50.4199 25.8224 50.4199 23.1189V4.6038C50.4199 1.90007 51.3212 0.794189 54.4754 0.794189H54.5572V0.835206Z" fill="#EF4046"/>
<path d="M76.8011 0.835693C79.9554 0.835693 80.8566 1.94157 80.8566 4.64508V13.6979C82.3312 11.7726 83.0686 10.0931 83.642 8.74137C84.3383 7.02091 85.936 6.07887 88.0659 6.07887H90.6466C91.9573 6.07887 92.9404 6.77525 92.9404 8.00418C92.9404 9.56058 91.0153 12.9197 87.5744 15.9099C89.4587 18.0398 90.9333 20.17 92.0394 22.1361C92.6537 23.2832 92.9814 23.9386 92.9814 24.8396C92.9814 26.1095 92.0394 27.0108 90.2369 27.0108H87.6564C86.0998 27.0108 84.5022 26.0275 83.6009 24.1024C82.7817 22.423 82.1674 20.6205 80.8566 18.7772V23.2012C80.8566 25.9047 79.9554 27.0108 76.8011 27.0108H76.6783C73.5243 27.0108 72.623 25.9047 72.623 23.2012V4.6861C72.623 1.98259 73.5243 0.87671 76.6783 0.87671H76.8011V0.835693Z" fill="#EF4046"/>
<path d="M101.342 20.0468C101.342 20.9478 102.038 21.6852 103.144 21.6852C104.537 21.6852 105.397 20.6201 105.397 19.2683V18.572C104.905 18.4491 103.8 18.3263 103.267 18.3263C102.038 18.3263 101.342 18.8588 101.342 20.0468ZM112.77 14.9264L112.729 19.2683C112.729 21.6032 113.631 23.078 114.327 23.4874C114.204 24.7984 113.18 27.1742 109.739 27.1742C107.486 27.1742 106.339 26.1091 105.561 24.2248L105.479 24.1838C105.151 25.2489 103.676 27.1742 100.44 27.1742C96.9997 27.1742 93.6816 25.0441 93.6816 20.7429C93.6816 16.401 97.5731 14.5167 101.464 14.5167C103.185 14.5167 104.168 14.7215 105.356 14.9264V14.5167C105.356 13.3698 104.045 12.7144 101.874 12.7144C99.3345 12.7144 97.8189 13.247 96.549 13.9023C95.5249 13.1649 94.5829 12.3867 94.5829 10.8711C94.5829 8.37227 97.7369 5.91463 103.349 5.91463C110.681 5.87362 112.811 9.72402 112.77 14.9264Z" fill="#EF4046"/>
</svg>
