<svg width="142" height="20" viewBox="0 0 142 20" fill="none" xmlns="http://www.w3.org/2000/svg">
<path fill-rule="evenodd" clip-rule="evenodd" d="M132.461 5.41234H126.689C125.72 5.47023 125.45 5.71292 125.45 6.90106V10.1764H132.461V5.41234ZM135.534 2.78955V17.0717H132.461V12.9663H125.45V17.0717H122.377V5.8751C122.377 3.89679 123.17 2.78955 125.45 2.78955H135.534ZM119.304 5.87241V13.6016C119.304 16.0622 117.936 17.069 116.23 17.069H106.537V2.78687H116.23C118.848 2.78687 119.304 4.46843 119.304 5.87241ZM116.194 6.73198C116.194 5.94947 115.722 5.40966 114.895 5.40966H109.611V14.3335L114.895 14.3331C116.099 14.2714 116.194 13.5422 116.194 12.9637V6.73198ZM43.8936 2.78687H46.9667V8.41623H53.8422V2.78687H56.9153V17.0686H53.8422V11.2403H46.9667V17.0686H43.8936V2.78687ZM62.1822 2.78687L66.0348 8.62556L69.8411 2.78687H73.5726L67.5698 11.9178V17.069H64.4963V11.917L58.4519 2.78687H62.1822ZM90.823 2.78687H100.726C102.137 2.78687 103.504 2.987 103.464 5.87241V17.069H100.391V6.89837C100.391 5.66845 100.245 5.40966 99.2897 5.40966H93.8968V17.069H90.823V2.78687ZM141.68 2.78955V17.0717H138.607V2.78955H141.68ZM75.1095 17.069H85.0119C86.9806 17.069 87.7901 16.4936 87.7502 13.6258V2.78687H84.6771V12.9824C84.6771 14.2047 84.531 14.3531 83.5759 14.3531H78.183L78.1826 2.78687H75.1095V17.069Z" fill="#001261"/>
<path fill-rule="evenodd" clip-rule="evenodd" d="M22.2004 12.0467C22.4713 13.4615 21.7374 14.6366 21.1276 15.7772C20.4502 16.8384 19.3322 17.7505 17.9884 17.614C14.973 17.5684 12.0259 17.1006 9.29286 16.2675C9.16876 16.2334 9.04467 16.1533 8.97674 16.0394C8.9202 15.8795 8.99951 15.7311 9.11222 15.6288C11.6081 13.5864 14.578 12.6399 17.5141 11.6469C18.6093 11.3275 19.7728 10.9851 21.0035 11.145C21.5112 11.2136 22.0194 11.5675 22.2004 12.0467ZM32.4879 6.00025C33.8882 7.16385 35.1531 8.74995 34.7239 10.6665C34.0237 13.496 30.9749 15.0019 28.5469 15.96C27.2256 16.4052 25.8932 16.8618 24.4477 16.9986C24.3574 16.9871 24.2105 17.0098 24.1878 16.8729L24.2215 16.7134C26.2768 14.3743 27.835 11.7508 29.2019 9.09232C29.8342 7.89421 30.4216 6.66237 30.9635 5.45277C31.0425 5.36152 31.1218 5.3159 31.2121 5.28177C31.7198 5.32701 32.0815 5.72651 32.4879 6.00025ZM12.7819 2.98832L12.7367 3.15931C9.76684 6.57036 7.81323 10.5293 5.96133 14.4652C5.60006 14.8076 5.24979 14.3509 4.92229 14.2026C3.27342 13.1076 1.78279 11.339 2.21199 9.23992C2.90076 6.50211 5.69 5.04177 8.01664 4.04955C9.39418 3.52468 10.8286 3.10257 12.3417 2.86295C12.4999 2.86256 12.7029 2.83994 12.7819 2.98832ZM27.5193 3.5358C27.6885 3.62705 27.8919 3.66117 27.9937 3.83216C28.084 4.02616 27.9033 4.15153 27.8016 4.27728C25.464 6.12524 22.7878 7.15235 20.0548 8.05371C18.6655 8.39608 17.2651 9.01219 15.7183 8.66982C15.3567 8.57857 15.0296 8.33895 14.8262 7.98508C14.4421 6.91273 14.9616 5.79475 15.4132 4.85927C16.0117 3.68417 17.0735 2.30358 18.5414 2.28096C21.7033 2.25795 24.6845 2.73719 27.5193 3.5358ZM31.4265 3.62705C33.8207 4.95052 36.531 7.27772 36.2487 10.3809C35.9212 13.256 33.2674 15.2638 30.896 16.4734C23.9734 19.8162 14.2505 19.9186 7.10207 16.9983C4.68511 15.983 1.97481 14.2375 0.958158 11.6131C0.179069 9.45692 1.12741 7.20947 2.72012 5.71501C6.05127 2.65745 10.2974 1.6081 14.6679 1.00311C19.4111 0.421117 24.4022 0.93448 28.6483 2.40633C29.597 2.7602 30.5343 3.14819 31.4265 3.62705Z" fill="#001261"/>
</svg>
