<svg width="139" height="26" viewBox="0 0 139 26" fill="none" xmlns="http://www.w3.org/2000/svg">
<path d="M130.702 19.4811C130.666 19.7644 130.559 20.5098 129.588 20.6067H121.06C120.089 20.5098 119.911 19.7644 119.875 19.4811V6.31534C119.911 6.0313 120.046 5.42755 121.017 5.33072H129.592C130.563 5.42755 130.666 6.0313 130.702 6.31534V19.4811ZM133.655 0.370213H116.922C114.408 0.573049 112.284 1.84817 112.001 4.7008V21.0008C112.284 23.8534 114.408 25.3647 116.922 25.5675H133.655C136.169 25.3647 138.293 23.8534 138.577 21.0008V4.7008C138.293 1.84817 136.169 0.573049 133.655 0.370213ZM65.9358 5.33072H58.4549V0.370213H81.2909V5.33072H73.8101V25.5675H65.9358V5.33072ZM56.0929 5.33072V0.370213H35.6193V25.5675L56.365 25.5621L56.3725 20.607H43.5136L43.5149 15.2103H56.0928V10.262H43.5149V5.33072L56.0929 5.33072ZM101.764 9.23626C101.764 9.78158 101.629 10.26 100.65 10.26H91.5275V5.31407H100.662C101.773 5.31407 101.764 6.04115 101.764 6.49508V9.23626ZM103.945 15.7722C106.402 15.5755 108.851 13.9036 108.851 11.1576V4.93693C108.566 2.09755 106.436 0.564218 103.91 0.362061H83.6529L83.6535 25.5675H91.5275V15.7722H94.6614L99.7796 25.5675H108.835L102.74 15.7722H103.945ZM19.3197 25.5675L24.5954 9.74047V25.5675H32.4698V0.370213H21.8396L16.7212 12.9692L11.6028 0.370213H0.972656V25.5675H8.84701V9.74047L14.1617 25.5675H19.3197Z" fill="#1A3C7B"/>
</svg>
