<svg width="143" height="17" viewBox="0 0 143 17" fill="none" xmlns="http://www.w3.org/2000/svg">
<path d="M83.4057 13.1231C83.2931 13.1513 82.8424 13.1513 82.6453 13.1513H68.1127V16.5291H82.8988C83.0114 16.5291 83.8845 16.5291 84.0535 16.5009C87.067 16.2195 88.4471 13.7142 88.4471 11.5186C88.4471 9.26674 87.0107 6.84596 84.2788 6.59262C83.7437 6.53633 83.2931 6.53633 83.0959 6.53633H73.4357C73.0132 6.53633 72.5345 6.50818 72.3655 6.45188C71.6051 6.25484 71.3234 5.57927 71.3234 5.0163C71.3234 4.50962 71.6051 3.83405 72.3936 3.60886C72.619 3.55257 72.8724 3.52442 73.4075 3.52442H87.3487V0.202881H73.1822C72.5908 0.202881 72.1402 0.23103 71.774 0.287328C69.3519 0.625111 67.6621 2.56737 67.6621 5.04445C67.6621 7.07115 68.9295 9.43564 71.7177 9.82972C72.2247 9.88601 72.9288 9.88601 73.2386 9.88601H82.6453C82.8143 9.88601 83.2367 9.88602 83.3212 9.91416C84.3915 10.0549 84.7576 10.8431 84.7576 11.5468C84.7576 12.2224 84.3351 12.9542 83.4057 13.1231Z" fill="black"/>
<path d="M55.8627 13.1231C55.7501 13.1513 55.2995 13.1513 55.1305 13.1513H40.5698V16.5291H55.3558C55.4685 16.5291 56.3415 16.5291 56.5105 16.5009C59.5241 16.2195 60.9041 13.7142 60.9041 11.5186C60.9041 9.26674 59.4677 6.84596 56.7358 6.59262C56.2007 6.53633 55.7501 6.53633 55.5529 6.53633H45.8927C45.4703 6.53633 44.9915 6.50818 44.8225 6.45188C44.0621 6.25484 43.7804 5.57927 43.7804 5.0163C43.7804 4.50962 44.0621 3.83405 44.8507 3.60886C45.076 3.55257 45.3295 3.52442 45.8646 3.52442H59.8057V0.202881H45.6393C45.0478 0.202881 44.5972 0.23103 44.2311 0.287328C41.809 0.625111 40.1191 2.56737 40.1191 5.04445C40.1191 7.07115 41.3865 9.43564 44.1747 9.82972C44.6817 9.88601 45.3858 9.88601 45.6956 9.88601H55.1023C55.2713 9.88601 55.6938 9.88602 55.7783 9.91416C56.8485 10.0549 57.2146 10.8431 57.2146 11.5468C57.2146 12.2224 56.8203 12.9542 55.8627 13.1231Z" fill="black"/>
<path d="M32.9953 0.0900879H29.334V16.6133H32.9953V0.0900879Z" fill="black"/>
<path d="M21.2491 16.6133V0.0900879H17.5878V12.4192L5.39282 0.0900879H0.689453V16.6133H4.35076V4.22794L16.6302 16.6133H21.2491Z" fill="black"/>
<path d="M139.002 0.0900879V12.4192L126.807 0.0900879H122.104V16.6133H125.765V4.22794L138.016 16.6133H142.635V0.0900879H139.002Z" fill="black"/>
<path d="M103.036 0.0900879L92.7285 16.6133H97.1784L99.0091 13.6577H111.035L112.866 16.6133H117.287L106.979 0.0900879H103.036ZM109.148 10.5332H100.896L105.036 3.89016L109.148 10.5332Z" fill="black"/>
</svg>
