<svg width="106" height="26" viewBox="0 0 106 26" fill="none" xmlns="http://www.w3.org/2000/svg">
<g clip-path="url(#clip0_7183_11200)">
<path d="M45.3753 1.22772L34.8352 11.3195V1.28438H29.4687V24.4564H34.8352V18.0439L38.664 14.4455L45.5932 24.4564H52.6345L42.9037 10.4859L52.1551 1.22834L45.3753 1.22772ZM72.8368 1.22772L62.2967 11.3195V1.28438H56.9302V24.4564H62.2967V18.0439L66.1255 14.4455L73.0547 24.4564H80.0959L70.3652 10.4859L79.6228 1.22834L72.8368 1.22772ZM24.731 7.35441C24.3629 5.86459 23.5948 4.50363 22.5097 3.41849C21.4246 2.33336 20.0636 1.56528 18.5738 1.19722C14.9529 0.286149 11.1627 0.286149 7.54187 1.19722C6.05205 1.56528 4.69109 2.33336 3.60595 3.41849C2.52081 4.50363 1.75274 5.86459 1.38467 7.35441C0.47464 10.9754 0.47464 14.7653 1.38467 18.3863C1.75325 19.8769 2.52225 21.2384 3.60856 22.3236C4.69486 23.4088 6.05713 24.1764 7.5481 24.5435C11.1689 25.4548 14.9592 25.4548 18.58 24.5435C20.0698 24.1754 21.4307 23.4073 22.5158 22.3222C23.601 21.237 24.3691 19.8761 24.7372 18.3863C25.647 14.7653 25.647 10.9754 24.7372 7.35441H24.731ZM19.5076 17.0914C19.3735 17.6319 19.0945 18.1256 18.7007 18.5194C18.3069 18.9132 17.8131 19.1922 17.2726 19.3264C14.5041 20.0252 11.6053 20.0252 8.83681 19.3264C8.29628 19.1922 7.80255 18.9132 7.40874 18.5194C7.01493 18.1256 6.73595 17.6319 6.60179 17.0914C5.90265 14.3229 5.90265 11.4241 6.60179 8.65558C6.73595 8.11505 7.01493 7.62132 7.40874 7.22751C7.80255 6.8337 8.29628 6.55471 8.83681 6.42056C11.6053 5.72168 14.5041 5.72168 17.2726 6.42056C17.8131 6.55471 18.3069 6.8337 18.7007 7.22751C19.0945 7.62132 19.3735 8.11505 19.5076 8.65558C20.2068 11.4241 20.2068 14.3229 19.5076 17.0914ZM104.606 7.35441C104.238 5.86376 103.469 4.50219 102.383 3.41697C101.296 2.33175 99.934 1.56416 98.443 1.19722C94.8221 0.286149 91.032 0.286149 87.4111 1.19722C85.9213 1.56528 84.5603 2.33336 83.4752 3.41849C82.39 4.50363 81.622 5.86459 81.2539 7.35441C80.3443 10.9755 80.3443 14.7653 81.2539 18.3863C81.6224 19.8759 82.3906 21.2367 83.4757 22.3217C84.5608 23.4068 85.9215 24.175 87.4111 24.5435C91.0319 25.4548 94.8222 25.4548 98.443 24.5435C99.9328 24.1754 101.294 23.4074 102.379 22.3222C103.464 21.2371 104.232 19.8761 104.6 18.3863C105.51 14.7653 105.51 10.9754 104.6 7.35441H104.606ZM99.3831 17.0851C99.2494 17.6259 98.9706 18.1199 98.5767 18.5138C98.1828 18.9077 97.6888 19.1865 97.1481 19.3202C94.3795 20.019 91.4808 20.019 88.7123 19.3202C88.1716 19.1863 87.6777 18.9074 87.2839 18.5135C86.89 18.1197 86.6111 17.6258 86.4772 17.0851C85.7787 14.3166 85.7787 11.4179 86.4772 8.64935C86.6115 8.10888 86.8906 7.61522 87.2843 7.22143C87.6781 6.82764 88.1718 6.54861 88.7123 6.41433C91.4808 5.71545 94.3795 5.71545 97.1481 6.41433C97.6887 6.54817 98.1826 6.82706 98.5765 7.22092C98.9704 7.61478 99.2492 8.10867 99.3831 8.64935C100.082 11.4178 100.082 14.3167 99.3831 17.0851Z" fill="#83BD59"/>
</g>
<defs>
<clipPath id="clip0_7183_11200">
<rect width="104.591" height="24.9027" fill="white" transform="translate(0.702148 0.513428)"/>
</clipPath>
</defs>
</svg>
