<svg width="150" height="20" viewBox="0 0 150 20" fill="none" xmlns="http://www.w3.org/2000/svg">
<path d="M110.838 15.4332H111.024C111.231 15.4508 111.441 15.4291 111.641 15.3692H111.888L111.765 15.1774L110.035 12.0445L109.788 12.1724L110.838 15.3053V15.4332ZM103.983 10.1264C104.29 9.97006 104.559 9.74583 104.773 9.46959C104.986 9.19335 105.138 8.87186 105.218 8.52793V9.03943C105.216 9.76838 105.278 10.496 105.404 11.2133C105.248 10.9442 105.042 10.7097 104.798 10.5232C104.554 10.3367 104.277 10.2018 103.983 10.1264ZM67.1755 14.3462L64.0877 10.0624L67.1755 5.84256V14.3462ZM110.653 9.10336C111.394 9.10336 111.888 9.6788 111.888 10.6379C111.931 10.9575 111.861 11.2824 111.691 11.5527C111.521 11.823 111.262 12.0204 110.962 12.1084L110.776 12.1724L110.9 12.3642L112.444 15.2414L112.506 15.3692H112.629C113.563 15.1562 114.409 14.6479 115.051 13.9147C115.692 13.1815 116.098 12.2598 116.211 11.2772C116.52 14.0905 118.434 15.561 120.349 15.561C120.849 15.5781 121.348 15.4907 121.814 15.3039C122.281 15.1172 122.707 14.835 123.066 14.4741V15.1774H127.266V5.58681H123.19V10.2542C123.212 10.4619 123.191 10.6721 123.13 10.8712C123.069 11.0703 122.968 11.2539 122.834 11.4104C122.701 11.5669 122.537 11.6928 122.354 11.7799C122.17 11.8671 121.971 11.9136 121.769 11.9166C121.566 11.9184 121.365 11.875 121.179 11.7895C120.994 11.7039 120.828 11.578 120.693 11.4205C120.559 11.2629 120.458 11.0772 120.399 10.8761C120.339 10.6749 120.322 10.4628 120.349 10.2542C120.332 10.0475 120.356 9.8394 120.419 9.64248C120.482 9.44556 120.583 9.26391 120.716 9.10853C120.848 8.95314 121.01 8.82725 121.191 8.73844C121.373 8.64964 121.569 8.59978 121.769 8.59187H122.016L121.893 8.40005L120.102 5.20319L120.04 5.13925H119.978C117.94 5.33106 116.458 7.05737 116.211 9.48699C116.081 8.42739 115.571 7.45732 114.781 6.77006C113.991 6.0828 112.98 5.72881 111.95 5.77862C110.902 5.72172 109.87 6.06274 109.047 6.73768C109.48 5.26712 110.776 4.81956 112.814 4.372C113.988 4.11625 115.964 3.66869 116.026 0.919379V0.791504H112.691V0.919379C112.629 1.23907 112.259 1.36694 111.394 1.55875C111.024 1.62269 110.529 1.75057 109.974 1.87844C107.256 2.58175 105.712 4.56381 105.404 7.76068C105.28 6.16225 103.674 5.20319 101.204 5.20319C99.8982 5.20791 98.6028 5.44584 97.3751 5.9065V5.58681H93.1138V10.2542C93.1356 10.4619 93.1152 10.6721 93.054 10.8712C92.9928 11.0703 92.8921 11.2539 92.7584 11.4104C92.6247 11.5669 92.4609 11.6928 92.2775 11.7799C92.0941 11.8671 91.8951 11.9136 91.6934 11.9166C91.4902 11.9184 91.289 11.875 91.1033 11.7895C90.9177 11.7039 90.752 11.578 90.6173 11.4205C90.4827 11.2629 90.3823 11.0772 90.3229 10.8761C90.2634 10.6749 90.2464 10.4628 90.2729 10.2542C90.2561 10.0475 90.2799 9.8394 90.343 9.64248C90.406 9.44556 90.507 9.26391 90.6397 9.10853C90.7725 8.95314 90.9343 8.82725 91.1154 8.73844C91.2965 8.64964 91.4931 8.59978 91.6934 8.59187H91.9404L91.8169 8.40005L90.0259 5.20319L89.9641 5.13925H89.9024C87.6173 5.33106 86.0734 7.44099 86.0734 10.2542C86.084 10.6407 86.1253 11.0256 86.1969 11.4051C85.2011 11.9039 84.1399 12.2485 83.0473 12.4281C82.2444 12.4281 82.2444 12.1084 82.2444 12.0445C82.2444 11.8527 82.2444 11.5969 83.0473 11.469C84.4677 11.2133 85.9499 10.7018 85.9499 8.52793C85.9499 6.86556 84.8382 5.07531 81.8121 5.07531C80.586 5.07354 79.3778 5.38075 78.2919 5.97043L78.1684 6.03437L78.2302 6.16225L79.2183 8.27218L79.2801 8.40005L79.4036 8.33612C79.9136 7.97416 80.5146 7.77417 81.1328 7.76068C81.9356 7.76068 81.9974 8.1443 81.9974 8.27218C81.9974 8.6558 81.5651 8.78368 80.9475 8.84762C80.8605 8.83805 80.7729 8.8607 80.7005 8.91155C79.4653 9.10337 78.6625 9.6788 78.3537 10.6379V10.1903C78.3537 6.86556 76.2539 5.07531 74.1542 5.07531C73.0973 5.05402 72.0755 5.46796 71.3133 6.22618V5.58681H62.4202L62.3584 5.65074L60.5675 8.91155V5.58681H53.4653L53.4036 5.71468L52.1684 9.35912L50.4392 5.71468L50.501 5.58681H45.5604L45.6839 5.77862L50.2539 13.7708L48.0307 18.5022L47.9071 18.694H52.3537L52.4155 18.63L56.368 9.23124V14.9856H60.691V11.3412L62.6672 14.9217L62.729 14.9856H67.2373V18.694H71.3751V10.2542C71.3533 10.0465 71.3737 9.8364 71.4348 9.63731C71.496 9.43822 71.5967 9.25455 71.7304 9.09806C71.8641 8.94157 72.0279 8.81572 72.2113 8.72855C72.3947 8.64139 72.5937 8.59483 72.7955 8.59187C72.9956 8.60031 73.1919 8.65053 73.3728 8.73951C73.5536 8.82849 73.7152 8.9544 73.8479 9.10966C73.9806 9.26493 74.0816 9.44636 74.1448 9.64304C74.208 9.83973 74.2322 10.0476 74.2159 10.2542C74.2387 10.457 74.2211 10.6624 74.1641 10.8579C74.1072 11.0533 74.012 11.2345 73.8847 11.3904C73.7573 11.5462 73.6004 11.6733 73.4237 11.7638C73.247 11.8543 73.0542 11.9063 72.8573 11.9166H72.6102L72.7337 12.1084L74.6482 15.2414L74.71 15.3053H74.7718C76.501 15.1135 77.7979 13.7708 78.2919 11.8527C78.2919 12.8757 78.7242 15.3053 82.7385 15.3053C84.406 15.2851 86.0336 14.7752 87.4321 13.8347C87.7966 14.3004 88.2582 14.6746 88.7823 14.9293C89.3063 15.1839 89.8793 15.3125 90.4582 15.3053C90.9584 15.3224 91.4569 15.235 91.9238 15.0482C92.3906 14.8615 92.8164 14.5792 93.1755 14.2184V14.9217H97.3751V8.46399C98.3998 8.06021 99.4902 7.86483 100.586 7.88855C101.389 7.88855 101.76 8.08037 101.76 8.52793C101.76 8.78368 101.451 8.97549 100.957 8.97549H99.166V11.469H100.833C101.513 11.469 101.822 11.5969 101.822 11.9166C101.822 12.2363 101.513 12.556 100.833 12.556C99.9348 12.5071 99.0632 12.2209 98.3014 11.7248L98.0544 11.5969V15.0495L98.1779 15.1135C99.1541 15.4488 100.176 15.6215 101.204 15.625C104.662 15.625 105.898 14.0265 105.898 12.6199C106.2 13.3576 106.674 14.0063 107.278 14.5083C107.881 15.0103 108.595 15.35 109.356 15.4971L109.541 15.561V10.6379C109.48 9.6788 109.912 9.10336 110.653 9.10336ZM149.19 14.7938L145.793 10.0624L148.819 5.84256L149.005 5.58681H144.064L144.002 5.65074L142.273 8.91155V5.58681H137.95V14.9856H142.273V11.3412L144.249 14.9217L144.311 14.9856H149.375L149.19 14.7938ZM122.634 9.1673L122.881 9.03943L121.769 5.65074V5.58681H121.708C121.407 5.47189 121.097 5.38627 120.781 5.33106L120.472 5.26712L120.596 5.52287L122.634 9.1673ZM24.6245 17.0316C24.501 16.9677 24.1304 16.7119 24.1304 15.8807C24.1304 15.1774 24.8715 14.4102 25.7361 13.515C26.9713 12.2363 28.33 10.8297 28.33 8.84762C28.3105 7.60109 28.0806 6.3677 27.6506 5.20319L38.8288 10.7657L24.6245 17.0316ZM24.8098 1.36694L24.3157 1.11119L24.6245 1.55875C24.6245 1.55875 26.4155 4.372 26.4155 6.86556C26.4155 9.1673 25.1803 10.4461 24.0069 11.5969C22.8953 12.7478 21.7219 13.9626 21.7219 16.0086C21.7309 17.3926 22.2121 18.7287 23.0805 19.7809L23.1423 19.8448L23.2041 19.7809L43.1518 10.9576L43.4606 10.8297L43.2136 10.7018L24.8098 1.36694ZM11.6554 12.0445C11.6554 10.2542 14.6197 8.78368 15.7314 8.27218C15.0227 9.37121 14.6366 10.6592 14.6197 11.9805C14.6848 13.323 15.1365 14.6145 15.9167 15.6889C14.7433 15.3692 11.6554 14.0905 11.6554 12.0445ZM22.5247 10.51C23.5746 8.97549 24.6862 7.37705 24.6862 5.97043C24.6862 3.73262 22.5247 1.23907 22.463 1.11119L22.4012 1.04725L22.3395 1.11119L0.35371 10.7018L0.0449219 10.8297L0.35371 10.9576L19.9927 19.1415L20.1162 18.8858C20.0544 18.8218 16.7813 15.4332 16.7813 12.6839C16.7813 10.446 17.9547 9.35911 19.1281 8.33612C19.9458 7.6805 20.6194 6.8523 21.1043 5.9065C21.3356 5.25201 21.4406 4.55685 21.4131 3.8605C21.6969 4.1394 21.9206 4.47722 22.0696 4.85184C22.2186 5.22645 22.2895 5.62942 22.2777 6.03437C22.2777 6.99343 21.4748 8.20824 20.6102 9.48699C19.6221 10.9575 18.5722 12.4281 18.5722 13.8347C18.5722 16.4562 21.6601 19.9727 21.7836 20.1006L22.0307 19.9088C22.0307 19.8448 20.5485 16.8398 20.5485 14.4741C20.6102 13.3872 21.5366 11.9805 22.5247 10.51ZM92.7432 9.1673L92.9903 9.03943L91.8786 5.58681V5.52287H91.8169C91.5164 5.40796 91.2063 5.32234 90.8905 5.26712L90.5817 5.20319L90.7052 5.45893L92.7432 9.1673ZM72.0544 11.9166L71.8074 12.0445L72.8573 15.1774V15.2414H72.919C73.166 15.3053 73.4748 15.3692 73.7836 15.4332H74.0307L73.9071 15.1774L72.0544 11.9166ZM131.712 15.0495H131.836V11.7887H133.195V15.0495H137.518V5.58681H133.195V8.46399H131.836V5.58681H127.513V14.9856H131.712V15.0495Z" fill="#005596"/>
</svg>
