<svg width="1302" height="108" viewBox="0 0 1302 108" fill="none" xmlns="http://www.w3.org/2000/svg">
<path d="M39.7841 14.7189H68.2795V105H39.7841V14.7189ZM0.602944 2.25221H107.461V27.4597H0.602944V2.25221ZM161.038 107.192C148.891 107.192 138.205 104.954 128.981 100.479C119.848 96.0039 112.724 89.7477 107.609 81.7105C102.586 73.6733 100.075 64.3119 100.075 53.6261C100.075 42.9403 102.586 33.5789 107.609 25.5417C112.724 17.5046 119.848 11.2484 128.981 6.77312C138.205 2.29788 148.891 0.0602631 161.038 0.0602631C173.277 0.0602631 183.962 2.29788 193.096 6.77312C202.229 11.2484 209.353 17.5046 214.467 25.5417C219.582 33.5789 222.139 42.9403 222.139 53.6261C222.139 64.3119 219.582 73.6733 214.467 81.7105C209.353 89.7477 202.229 96.0039 193.096 100.479C183.962 104.954 173.277 107.192 161.038 107.192ZM161.038 81.8475C167.705 81.8475 173.459 80.7059 178.3 78.4226C183.14 76.1393 186.839 72.897 189.397 68.6958C192.045 64.4945 193.37 59.4713 193.37 53.6261C193.37 47.7809 192.045 42.7577 189.397 38.5564C186.839 34.3552 183.14 31.1129 178.3 28.8296C173.459 26.5464 167.705 25.4047 161.038 25.4047C154.462 25.4047 148.754 26.5464 143.914 28.8296C139.073 31.1129 135.328 34.3552 132.68 38.5564C130.031 42.7577 128.707 47.7809 128.707 53.6261C128.707 59.4713 130.031 64.4945 132.68 68.6958C135.328 72.897 139.073 76.1393 143.914 78.4226C148.754 80.7059 154.462 81.8475 161.038 81.8475ZM225.816 105V2.25221H254.038V82.3955L246.503 76.5046L304.727 2.25221H334.729L251.435 105H225.816ZM274.861 55.9551L295.685 38.6934L336.099 105H303.905L274.861 55.9551ZM354.062 85.2724V62.3939H424.889V85.2724H354.062ZM408.724 2.25221L455.44 105H425.163L385.982 14.308H394.202L354.884 105H324.607L371.323 2.25221H408.724ZM567.629 85.1354L558.862 86.9164V2.25221H586.398V105H550.642L491.322 20.4728L499.953 18.6919V105H472.416V2.25221H509.132L567.629 85.1354ZM682.389 43.3513V63.9009H607.178V43.3513H682.389ZM626.494 53.6261L619.781 94.8622L608.274 81.9845H686.91V105H591.423L599.232 53.6261L591.423 2.25221H686.225V25.2677H608.274L619.781 12.39L626.494 53.6261ZM723.506 14.7189H752.002V105H723.506V14.7189ZM684.325 2.25221H791.183V27.4597H684.325V2.25221ZM921.105 92.9443H912.201L937.819 2.25221H967.821L936.586 105H900.008L870.279 17.3219H881.924L852.059 105H815.618L784.245 2.25221H814.385L840.003 92.9443L831.235 92.8073L861.101 2.25221H891.103L921.105 92.9443ZM1020.97 107.192C1008.82 107.192 998.135 104.954 988.91 100.479C979.777 96.0039 972.653 89.7477 967.539 81.7105C962.516 73.6733 960.004 64.3119 960.004 53.6261C960.004 42.9403 962.516 33.5789 967.539 25.5417C972.653 17.5046 979.777 11.2484 988.91 6.77312C998.135 2.29788 1008.82 0.0602631 1020.97 0.0602631C1033.21 0.0602631 1043.89 2.29788 1053.02 6.77312C1062.16 11.2484 1069.28 17.5046 1074.4 25.5417C1079.51 33.5789 1082.07 42.9403 1082.07 53.6261C1082.07 64.3119 1079.51 73.6733 1074.4 81.7105C1069.28 89.7477 1062.16 96.0039 1053.02 100.479C1043.89 104.954 1033.21 107.192 1020.97 107.192ZM1020.97 81.8475C1027.63 81.8475 1033.39 80.7059 1038.23 78.4226C1043.07 76.1393 1046.77 72.897 1049.33 68.6958C1051.97 64.4945 1053.3 59.4713 1053.3 53.6261C1053.3 47.7809 1051.97 42.7577 1049.33 38.5564C1046.77 34.3552 1043.07 31.1129 1038.23 28.8296C1033.39 26.5464 1027.63 25.4047 1020.97 25.4047C1014.39 25.4047 1008.68 26.5464 1003.84 28.8296C999.002 31.1129 995.258 34.3552 992.609 38.5564C989.961 42.7577 988.636 47.7809 988.636 53.6261C988.636 59.4713 989.961 64.4945 992.609 68.6958C995.258 72.897 999.002 76.1393 1003.84 78.4226C1008.68 80.7059 1014.39 81.8475 1020.97 81.8475ZM1105.34 47.1872H1142.74C1147.3 47.1872 1150.87 46.1369 1153.42 44.0363C1155.98 41.9357 1157.26 39.0131 1157.26 35.2685C1157.26 31.4326 1155.98 28.51 1153.42 26.5007C1150.87 24.4001 1147.3 23.3498 1142.74 23.3498H1101.36L1114.1 9.78705V105H1085.75V2.25221H1146.71C1154.56 2.25221 1161.41 3.66785 1167.26 6.49912C1173.1 9.23907 1177.67 13.075 1180.96 18.0069C1184.25 22.8474 1185.89 28.6013 1185.89 35.2685C1185.89 41.753 1184.25 47.4612 1180.96 52.3931C1177.67 57.325 1173.1 61.1609 1167.26 63.9009C1161.41 66.6408 1154.56 68.0108 1146.71 68.0108H1105.34V47.1872ZM1120.68 56.914H1152.6L1189.45 105H1156.57L1120.68 56.914ZM1191.18 105V2.25221H1219.4V82.3955L1211.87 76.5046L1270.09 2.25221H1300.09L1216.8 105H1191.18ZM1240.22 55.9551L1261.05 38.6934L1301.46 105H1269.27L1240.22 55.9551Z" fill="url(#paint0_linear_8594_19887)"/>
<path d="M39.7841 14.7189H68.2795V105H39.7841V14.7189ZM0.602944 2.25221H107.461V27.4597H0.602944V2.25221ZM161.038 107.192C148.891 107.192 138.205 104.954 128.981 100.479C119.848 96.0039 112.724 89.7477 107.609 81.7105C102.586 73.6733 100.075 64.3119 100.075 53.6261C100.075 42.9403 102.586 33.5789 107.609 25.5417C112.724 17.5046 119.848 11.2484 128.981 6.77312C138.205 2.29788 148.891 0.0602631 161.038 0.0602631C173.277 0.0602631 183.962 2.29788 193.096 6.77312C202.229 11.2484 209.353 17.5046 214.467 25.5417C219.582 33.5789 222.139 42.9403 222.139 53.6261C222.139 64.3119 219.582 73.6733 214.467 81.7105C209.353 89.7477 202.229 96.0039 193.096 100.479C183.962 104.954 173.277 107.192 161.038 107.192ZM161.038 81.8475C167.705 81.8475 173.459 80.7059 178.3 78.4226C183.14 76.1393 186.839 72.897 189.397 68.6958C192.045 64.4945 193.37 59.4713 193.37 53.6261C193.37 47.7809 192.045 42.7577 189.397 38.5564C186.839 34.3552 183.14 31.1129 178.3 28.8296C173.459 26.5464 167.705 25.4047 161.038 25.4047C154.462 25.4047 148.754 26.5464 143.914 28.8296C139.073 31.1129 135.328 34.3552 132.68 38.5564C130.031 42.7577 128.707 47.7809 128.707 53.6261C128.707 59.4713 130.031 64.4945 132.68 68.6958C135.328 72.897 139.073 76.1393 143.914 78.4226C148.754 80.7059 154.462 81.8475 161.038 81.8475ZM225.816 105V2.25221H254.038V82.3955L246.503 76.5046L304.727 2.25221H334.729L251.435 105H225.816ZM274.861 55.9551L295.685 38.6934L336.099 105H303.905L274.861 55.9551ZM354.062 85.2724V62.3939H424.889V85.2724H354.062ZM408.724 2.25221L455.44 105H425.163L385.982 14.308H394.202L354.884 105H324.607L371.323 2.25221H408.724ZM567.629 85.1354L558.862 86.9164V2.25221H586.398V105H550.642L491.322 20.4728L499.953 18.6919V105H472.416V2.25221H509.132L567.629 85.1354ZM682.389 43.3513V63.9009H607.178V43.3513H682.389ZM626.494 53.6261L619.781 94.8622L608.274 81.9845H686.91V105H591.423L599.232 53.6261L591.423 2.25221H686.225V25.2677H608.274L619.781 12.39L626.494 53.6261ZM723.506 14.7189H752.002V105H723.506V14.7189ZM684.325 2.25221H791.183V27.4597H684.325V2.25221ZM921.105 92.9443H912.201L937.819 2.25221H967.821L936.586 105H900.008L870.279 17.3219H881.924L852.059 105H815.618L784.245 2.25221H814.385L840.003 92.9443L831.235 92.8073L861.101 2.25221H891.103L921.105 92.9443ZM1020.97 107.192C1008.82 107.192 998.135 104.954 988.91 100.479C979.777 96.0039 972.653 89.7477 967.539 81.7105C962.516 73.6733 960.004 64.3119 960.004 53.6261C960.004 42.9403 962.516 33.5789 967.539 25.5417C972.653 17.5046 979.777 11.2484 988.91 6.77312C998.135 2.29788 1008.82 0.0602631 1020.97 0.0602631C1033.21 0.0602631 1043.89 2.29788 1053.02 6.77312C1062.16 11.2484 1069.28 17.5046 1074.4 25.5417C1079.51 33.5789 1082.07 42.9403 1082.07 53.6261C1082.07 64.3119 1079.51 73.6733 1074.4 81.7105C1069.28 89.7477 1062.16 96.0039 1053.02 100.479C1043.89 104.954 1033.21 107.192 1020.97 107.192ZM1020.97 81.8475C1027.63 81.8475 1033.39 80.7059 1038.23 78.4226C1043.07 76.1393 1046.77 72.897 1049.33 68.6958C1051.97 64.4945 1053.3 59.4713 1053.3 53.6261C1053.3 47.7809 1051.97 42.7577 1049.33 38.5564C1046.77 34.3552 1043.07 31.1129 1038.23 28.8296C1033.39 26.5464 1027.63 25.4047 1020.97 25.4047C1014.39 25.4047 1008.68 26.5464 1003.84 28.8296C999.002 31.1129 995.258 34.3552 992.609 38.5564C989.961 42.7577 988.636 47.7809 988.636 53.6261C988.636 59.4713 989.961 64.4945 992.609 68.6958C995.258 72.897 999.002 76.1393 1003.84 78.4226C1008.68 80.7059 1014.39 81.8475 1020.97 81.8475ZM1105.34 47.1872H1142.74C1147.3 47.1872 1150.87 46.1369 1153.42 44.0363C1155.98 41.9357 1157.26 39.0131 1157.26 35.2685C1157.26 31.4326 1155.98 28.51 1153.42 26.5007C1150.87 24.4001 1147.3 23.3498 1142.74 23.3498H1101.36L1114.1 9.78705V105H1085.75V2.25221H1146.71C1154.56 2.25221 1161.41 3.66785 1167.26 6.49912C1173.1 9.23907 1177.67 13.075 1180.96 18.0069C1184.25 22.8474 1185.89 28.6013 1185.89 35.2685C1185.89 41.753 1184.25 47.4612 1180.96 52.3931C1177.67 57.325 1173.1 61.1609 1167.26 63.9009C1161.41 66.6408 1154.56 68.0108 1146.71 68.0108H1105.34V47.1872ZM1120.68 56.914H1152.6L1189.45 105H1156.57L1120.68 56.914ZM1191.18 105V2.25221H1219.4V82.3955L1211.87 76.5046L1270.09 2.25221H1300.09L1216.8 105H1191.18ZM1240.22 55.9551L1261.05 38.6934L1301.46 105H1269.27L1240.22 55.9551Z" fill="black" fill-opacity="0.2"/>
<defs>
<linearGradient id="paint0_linear_8594_19887" x1="649.998" y1="2" x2="658.257" y2="111.95" gradientUnits="userSpaceOnUse">
<stop stop-color="#797979"/>
<stop offset="1" stop-color="white"/>
</linearGradient>
</defs>
</svg>
