<!-- Generated by IcoMoon.io -->
<svg version="1.1" xmlns="http://www.w3.org/2000/svg" width="1024" height="1024" viewBox="0 0 1024 1024">

<path fill="currentColor" d="M801.099 541.151c-0.493-83.935 37.536-147.196 114.336-193.842-42.952-61.535-107.937-95.379-193.594-101.902-81.106-6.4-169.841 47.262-202.331 47.262-34.336 0-112.855-45.046-174.64-45.046-127.502 1.969-263.005 101.657-263.005 304.48 0 59.937 10.953 121.841 32.86 185.592 29.292 83.935 134.886 289.588 245.037 286.266 57.598-1.353 98.333-40.859 173.287-40.859 72.737 0 110.396 40.859 174.64 40.859 111.132-1.6 206.637-188.545 234.451-272.727-149.039-70.273-141.039-205.777-141.039-210.083zM671.752 165.779c62.397-74.090 56.734-141.533 54.888-165.779-55.134 3.2-118.889 37.537-155.195 79.751-39.995 45.29-63.504 101.289-58.457 164.424 59.568 4.554 113.965-26.092 158.765-78.397z"></path>
</svg>
