<!-- Generated by IcoMoon.io -->
<svg version="1.1" xmlns="http://www.w3.org/2000/svg" width="1024" height="1024" viewBox="0 0 1024 1024">

<path fill="currentColor" d="M113.249 1023.998h797.498c14.848-0.326 29.491-3.573 43.065-9.569 27.392-11.45 49.182-33.226 60.62-60.62 5.995-13.575 9.245-28.218 9.569-43.065v-797.498c0-14.871-2.936-29.598-8.622-43.337-5.698-13.739-14.034-26.224-24.552-36.74-21.235-21.238-50.036-33.169-80.081-33.169-30.033 0-58.834 11.931-80.067 33.169s-33.171 50.043-33.171 80.076l0.799 525.559-605.307-605.309c-21.152-21.152-49.839-33.033-79.75-33.033s-58.598 11.881-79.75 33.033c-21.152 21.152-33.033 49.839-33.033 79.75s11.883 58.598 33.033 79.75l605.307 605.307-525.559-0.799c-14.888-0.055-29.643 2.829-43.41 8.5s-26.274 14.008-36.804 24.537c-10.527 10.53-18.868 23.034-24.537 36.799s-8.557 28.515-8.496 43.403c-0.062 14.9 2.826 29.652 8.496 43.418s14.010 26.269 24.537 36.799c10.527 10.53 23.036 18.866 36.804 24.537s28.52 8.553 43.41 8.5z"></path>
</svg>
