<!-- Generated by IcoMoon.io -->
<svg version="1.1" xmlns="http://www.w3.org/2000/svg" width="1024" height="1024" viewBox="0 0 1024 1024">

<path fill="currentColor" d="M847.434 477.741l-534.862-464.218c-4.107-3.541-9.343-5.522-14.865-5.522h-125.294c-10.477 0-15.288 13.025-7.361 19.819l495.789 430.383 26.805 33.077c9.861 12.165 10.129 29.492 0.655 41.958l-16.141 21.236-11.463 11.326-495.789 430.383c-7.928 6.938-3.116 19.819 7.362 19.819h129.54c2.69 0 5.379-0.99 7.362-2.83l538.261-466.909c4.901-4.261 8.83-9.526 11.524-15.435s4.086-12.329 4.086-18.824c0-6.495-1.393-12.915-4.086-18.824s-6.621-11.174-11.524-15.435z"></path>
</svg>
