<!-- Generated by IcoMoon.io -->
<svg version="1.1" xmlns="http://www.w3.org/2000/svg" width="1024" height="1024" viewBox="0 0 1024 1024">

<path fill="currentColor" d="M256 256.002h-128c-33.948 0-66.504 13.486-90.51 37.491s-37.491 56.562-37.491 90.51v228.476c163.863 60.722 337.247 91.718 511.999 91.521 174.755 0.193 348.138-30.798 511.999-91.521v-228.476c0-33.948-13.482-66.505-37.489-90.51s-56.562-37.491-90.51-37.491h-128v-64c0-50.921-20.231-99.758-56.235-135.764-36.010-36.008-84.843-56.235-135.765-56.235h-128c-50.921 0-99.758 20.228-135.764 56.235s-56.236 84.843-56.236 135.764v64zM384.001 192.001c0-16.975 6.744-33.253 18.745-45.256s28.281-18.745 45.254-18.745h128c16.975 0 33.251 6.742 45.256 18.745s18.745 28.281 18.745 45.256v64h-256v-64zM448 512.001c0-16.975 6.744-33.253 18.745-45.256s28.281-18.745 45.254-18.745h0.64c16.975 0 33.253 6.742 45.256 18.745s18.745 28.281 18.745 45.256c0 16.973-6.742 33.253-18.745 45.252-12.002 12.003-28.281 18.745-45.256 18.745h-0.64c-16.973 0-33.253-6.741-45.254-18.745-12.002-11.999-18.745-28.278-18.745-45.252z"></path>
<path fill="currentColor" d="M0.001 748.285v147.712c0 33.941 13.486 66.503 37.491 90.503 24.005 24.007 56.562 37.497 90.51 37.497h767.999c33.948 0 66.503-13.49 90.51-37.497 24.007-23.999 37.489-56.562 37.489-90.503v-147.712c-164.97 55.595-337.912 83.876-511.999 83.712-174.086 0.157-347.029-28.124-511.999-83.712z"></path>
</svg>
