<!-- Generated by IcoMoon.io -->
<svg version="1.1" xmlns="http://www.w3.org/2000/svg" width="1024" height="1024" viewBox="0 0 1024 1024">

<path fill="currentColor" d="M1000.547 161.165c-6.776-6.829-14.835-12.249-23.71-15.948-8.882-3.699-18.406-5.603-28.024-5.603s-19.142 1.904-28.024 5.603c-8.882 3.699-16.941 9.119-23.71 15.948l-542.827 543.556-228.061-228.788c-7.034-6.798-15.335-12.138-24.432-15.723s-18.812-5.34-28.589-5.173c-9.777 0.167-19.425 2.266-28.393 6.165-8.967 3.89-17.081 9.524-23.874 16.555s-12.135 15.33-15.72 24.431c-3.586 9.1-5.343 18.814-5.174 28.591 0.169 9.772 2.261 19.425 6.16 28.387 3.897 8.969 9.524 17.079 16.556 23.877l279.793 279.793c6.773 6.827 14.832 12.248 23.712 15.95 8.878 3.694 18.402 5.603 28.022 5.603s19.142-1.909 28.024-5.603c8.875-3.701 16.934-9.123 23.71-15.95l594.559-594.561c7.396-6.822 13.298-15.103 17.333-24.321s6.12-19.171 6.12-29.233c0-10.062-2.083-20.016-6.12-29.233s-9.939-17.497-17.333-24.321z"></path>
</svg>
