<!-- Generated by IcoMoon.io -->
<svg version="1.1" xmlns="http://www.w3.org/2000/svg" width="1024" height="1024" viewBox="0 0 1024 1024">

<path fill="currentColor" d="M495.69 1023.437c-33.045 0-66.351-3.762-99.917-11.292s-67.858-18.286-102.867-32.266c12.017-121.169 47.068-234.326 105.148-339.474s132.687-197.777 223.812-277.889c-110.152 56.079-205.544 130.183-286.179 222.312-80.635 92.127-136.95 197.274-168.955 315.441-4.006-3.007-7.771-6.25-11.295-9.736l-11.235-11.292c-47.066-47.068-82.876-99.641-107.43-157.722s-36.811-118.664-36.771-181.753c0-68.096 13.519-133.19 40.556-195.272 27.037-62.087 64.59-117.164 112.657-165.234 81.116-81.112 186.259-133.925 315.442-158.44 129.178-24.514 310.432-26.777 543.758-6.79 18.026 239.333 15.019 421.849-9.011 547.545-24.035 125.692-76.106 228.579-156.218 308.649-49.070 49.070-103.906 86.88-164.508 113.438-60.607 26.558-122.932 39.817-186.982 39.775z"></path>
</svg>
