<!-- Generated by IcoMoon.io -->
<svg version="1.1" xmlns="http://www.w3.org/2000/svg" width="1024" height="1024" viewBox="0 0 1024 1024">

<path fill="currentColor" d="M161.213 224.963c12.346-28.8 32.877-53.341 59.044-70.578s56.821-26.41 88.156-26.382h407.171c63.996 0 121.849 38.144 147.069 96.96l50.689 118.271c4.802 11.2 13.438 20.416 24.321 25.855 32.001 16 54.721 45.76 61.756 80.767l21.442 107.458c2.116 10.305 3.14 20.796 3.14 31.356v26.437c0 52.096-24.959 98.751-64.002 127.805v121.086c0 8.491-3.373 16.626-9.371 22.63-6.004 5.998-14.146 9.371-22.63 9.371h-127.997c-8.485 0-16.626-3.373-22.63-9.371-5.998-6.004-9.371-14.139-9.371-22.63v-85.629c-82.69 3.071-175.676 5.633-256 5.633-80.32 0-173.312-2.562-255.999-5.633v85.629c0 8.491-3.372 16.626-9.373 22.63-6.001 5.998-14.141 9.371-22.628 9.371h-128c-8.487 0-16.626-3.373-22.627-9.371-6.001-6.004-9.373-14.139-9.373-22.63v-121.086c-39.040-29.054-63.999-75.709-63.999-127.805v-26.437c0.010-10.525 1.061-21.029 3.136-31.356l21.44-107.521c7.040-34.943 29.76-64.768 61.696-80.703 10.931-5.462 19.57-14.625 24.383-25.855l50.689-118.271h-0.127zM593.212 257.602c-2.335-1.363-5.063-1.89-7.743-1.495-2.673 0.395-5.136 1.69-6.978 3.671l-191.359 203.968c-1.592 1.713-2.65 3.852-3.047 6.158s-0.111 4.676 0.82 6.821c0.931 2.145 2.465 3.973 4.418 5.261s4.238 1.977 6.576 1.986h79.424l-43.072 140.48c-0.803 2.597-0.702 5.393 0.286 7.928 0.988 2.528 2.806 4.658 5.155 6.026 4.801 2.748 10.88 1.917 14.719-2.177l184.322-203.968c1.587-1.713 2.645-3.852 3.044-6.157s0.11-4.676-0.817-6.821c-0.934-2.145-2.467-3.973-4.417-5.261-1.958-1.286-4.238-1.977-6.581-1.986h-79.421l50.051-140.48c0.797-2.598 0.701-5.392-0.288-7.925s-2.803-4.658-5.152-6.027h0.062z"></path>
</svg>
