<!-- Generated by IcoMoon.io -->
<svg version="1.1" xmlns="http://www.w3.org/2000/svg" width="1024" height="1024" viewBox="0 0 1024 1024">

<path fill="currentColor" d="M564.635 0.073c37.359-0.143 74.718 0.232 112.071 1.127l9.932 0.359c11.468 0.409 22.783 0.922 36.453 1.536 54.474 2.559 91.643 11.161 124.256 23.807 33.79 13.004 62.256 30.616 90.721 59.081 26.029 25.579 46.17 56.52 59.031 90.671 12.646 32.613 21.247 69.833 23.807 124.308 0.614 13.618 1.127 24.984 1.536 36.453l0.307 9.932c0.906 37.332 1.301 74.675 1.177 112.018l0.052 38.193v67.068c0.122 37.364-0.266 74.723-1.177 112.071l-0.307 9.932c-0.409 11.468-0.922 22.783-1.536 36.453-2.559 54.474-11.264 91.643-23.858 124.256-12.82 34.19-32.966 65.154-59.031 90.721-25.604 26.029-56.558 46.17-90.721 59.031-32.613 12.646-69.782 21.247-124.256 23.807-13.67 0.614-24.984 1.127-36.453 1.536l-9.932 0.307c-37.348 0.911-74.712 1.306-112.071 1.177l-105.211 0.052c-37.364 0.128-74.723-0.266-112.072-1.177l-9.932-0.307c-12.154-0.44-24.305-0.953-36.453-1.536-54.474-2.559-91.643-11.264-124.308-23.858-34.165-12.83-65.111-32.977-90.671-59.031-26.058-25.584-46.22-56.542-59.081-90.721-12.646-32.613-21.247-69.782-23.807-124.256-0.57-12.149-1.082-24.299-1.536-36.453l-0.256-9.932c-0.944-37.348-1.37-74.707-1.28-112.071v-105.262c-0.143-37.343 0.233-74.685 1.127-112.018l0.359-9.932c0.409-11.468 0.922-22.834 1.536-36.453 2.559-54.525 11.161-91.643 23.807-124.308 12.869-34.168 33.072-65.1 59.185-90.619 25.542-26.072 56.469-46.253 90.619-59.133 32.664-12.646 69.782-21.247 124.308-23.807l36.453-1.536 9.932-0.256c37.332-0.943 74.677-1.37 112.021-1.28l105.262 0.052zM512.005 256.059c-33.919-0.48-67.596 5.786-99.067 18.435-31.478 12.647-60.125 31.425-84.28 55.242s-43.336 52.195-56.427 83.488c-13.091 31.292-19.834 64.877-19.834 98.796 0 33.923 6.741 67.504 19.834 98.801 13.093 31.292 32.272 59.671 56.427 83.488s52.802 42.591 84.28 55.242c31.471 12.646 65.148 18.912 99.067 18.431 67.893 0 133-26.971 181.008-74.973 48.008-48.008 74.978-113.121 74.978-181.013s-26.971-133.001-74.978-181.008c-48.008-48.007-113.116-74.925-181.008-74.925zM512.005 358.453c20.403-0.376 40.677 3.318 59.635 10.864s36.223 18.796 50.787 33.091c14.56 14.295 26.131 31.35 34.025 50.165 7.899 18.815 11.969 39.012 11.969 59.42 0.005 20.407-4.055 40.61-11.949 59.425-7.89 18.82-19.455 35.879-34.010 50.179-14.56 14.3-31.819 25.553-50.778 33.104-18.958 7.557-39.227 11.253-59.63 10.885-40.738 0-79.802-16.179-108.608-44.982-28.805-28.809-44.986-67.872-44.986-108.61 0-40.733 16.182-79.802 44.986-108.604 28.806-28.805 67.87-44.986 108.608-44.986l-0.052 0.052zM780.791 179.263c-16.516 0.661-32.137 7.687-43.589 19.607s-17.848 27.809-17.848 44.339c0 16.53 6.394 32.419 17.848 44.339s27.073 18.946 43.589 19.607c16.972 0 33.248-6.742 45.253-18.744 12.001-12.002 18.743-28.279 18.743-45.252s-6.742-33.25-18.743-45.252c-12.005-12.002-28.281-18.744-45.253-18.744v0.102z"></path>
</svg>
