<!-- Generated by IcoMoon.io -->
<svg version="1.1" xmlns="http://www.w3.org/2000/svg" width="970" height="1024" viewBox="0 0 970 1024">
<path fill="currentColor" d="M485 997.003c-66.284 0-128.93-12.739-187.939-38.218s-110.548-60.237-154.618-104.275c-44.038-44.038-78.797-95.565-104.275-154.574s-38.202-121.652-38.169-187.935c0-67.092 12.739-129.948 38.218-188.569s60.237-109.934 104.275-153.939c44.038-44.070 95.545-78.829 154.521-104.275s121.639-38.186 187.987-38.218c67.092 0 129.948 12.739 188.569 38.218s109.934 60.237 153.939 104.275c44.070 44.038 78.829 95.367 104.275 153.988s38.186 121.461 38.218 188.521c0 66.284-12.739 128.927-38.218 187.935s-60.237 110.548-104.275 154.618c-44.038 44.038-95.371 78.797-153.992 104.275s-121.457 38.205-188.517 38.173zM485 897.578c21.017-29.101 39.205-59.415 54.563-90.941s27.888-65.068 37.587-100.635h-184.301c9.7 35.567 22.229 69.109 37.587 100.635s33.546 61.842 54.563 90.941zM358.9 878.178c-14.55-26.676-27.29-54.372-38.218-83.084s-20.014-58.408-27.258-89.092h-143.076c23.442 40.417 52.753 75.577 87.93 105.485s75.386 52.141 120.62 66.691zM611.101 878.178c45.267-14.55 85.49-36.782 120.669-66.691s64.473-65.068 87.883-105.485h-143.076c-7.275 30.717-16.36 60.432-27.258 89.144s-23.636 56.389-38.218 83.033zM109.123 609.002h164.901c-2.425-16.167-4.252-32.14-5.481-47.918s-1.827-32.14-1.795-49.082c0-16.975 0.614-33.336 1.843-49.082s3.039-31.719 5.432-47.918h-164.901c-4.041 16.167-7.080 32.14-9.118 47.918s-3.039 32.14-3.007 49.082c0 16.975 1.019 33.336 3.056 49.082s5.060 31.719 9.070 47.918zM371.025 609.002h227.951c2.425-16.167 4.249-32.14 5.477-47.918 1.235-15.778 1.83-32.14 1.797-49.082 0-16.975-0.614-33.336-1.843-49.082s-3.039-31.719-5.432-47.918h-227.951c-2.425 16.167-4.252 32.14-5.481 47.918s-1.827 32.14-1.795 49.082c0 16.975 0.614 33.336 1.843 49.082s3.039 31.719 5.432 47.918zM695.977 609.002h164.901c4.041-16.167 7.080-32.14 9.118-47.918s3.039-32.14 3.007-49.082c0-16.975-1.015-33.336-3.052-49.082s-5.063-31.719-9.072-47.918h-164.901c2.425 16.167 4.249 32.14 5.477 47.918s1.83 32.14 1.797 49.082c0 16.975-0.614 33.336-1.843 49.082s-3.039 31.719-5.432 47.918zM676.576 317.999h143.076c-23.442-40.417-52.736-75.579-87.883-105.488s-75.369-52.138-120.669-66.688c14.55 26.676 27.29 54.369 38.218 83.081s20.014 58.41 27.258 89.094zM392.85 317.999h184.301c-9.7-35.567-22.229-69.113-37.587-100.638s-33.546-61.838-54.563-90.937c-21.017 29.101-39.205 59.413-54.563 90.937s-27.888 65.072-37.587 100.638zM150.349 317.999h143.076c7.275-30.717 16.377-60.432 27.306-89.144s23.652-56.389 38.169-83.033c-45.267 14.55-85.49 36.78-120.669 66.688s-64.473 65.072-87.883 105.488z"></path>
</svg>
