<!-- Generated by IcoMoon.io -->
<svg version="1.1" xmlns="http://www.w3.org/2000/svg" width="1024" height="1024" viewBox="0 0 1024 1024">

<path fill="currentColor" d="M214.899 135.951c-0.015 28.498-11.349 55.822-31.51 75.963s-47.496 31.448-75.994 31.433c-28.498-0.014-55.822-11.348-75.963-31.51s-31.448-47.498-31.433-75.994c0.014-28.498 11.348-55.822 31.51-75.963s47.496-31.448 75.994-31.433c28.498 0.015 55.822 11.348 75.963 31.51s31.448 47.498 31.433 75.994zM218.123 322.915h-214.901v672.64h214.901v-672.64zM557.666 322.915h-213.826v672.64h211.676v-352.974c0-196.634 256.269-214.901 256.269 0v352.974h212.214v-426.041c0-331.484-379.3-319.128-468.483-156.34l2.149-90.258z"></path>
</svg>
