<!-- Generated by IcoMoon.io -->
<svg version="1.1" xmlns="http://www.w3.org/2000/svg" width="1024" height="1024" viewBox="0 0 1024 1024">

<path fill="currentColor" d="M941.141 230.623c-35.577-54.601-81.243-101.912-134.552-139.396-56.964-39.47-121.441-66.79-189.42-80.258-85.169-17.821-173.456-13.877-256.697 11.465h-0.481c-10.699 4.576-19.515 12.665-24.994 22.931-3.229 4.735-5.489 10.062-6.65 15.674s-1.2 11.399-0.114 17.026v0.413c1.727 5.996 4.634 11.586 8.552 16.441s8.767 8.878 14.263 11.833c6.432 3.124 13.487 4.755 20.637 4.77 5.174 0.007 10.313-0.853 15.202-2.546 60.973-19.319 125.563-24.405 188.809-14.864 63.245 9.54 123.461 33.452 176.023 69.898 43.949 30.96 81.454 70.173 110.429 115.456 45.526 70.236 69.211 152.392 68.065 236.085s-27.075 165.168-74.508 234.131c-30.951 43.916-70.043 81.483-115.153 110.663-70.136 45.783-152.3 69.677-236.047 68.644s-165.298-26.946-234.283-74.445c-89.040-63.427-150.73-158.247-172.636-265.354-11.122-55.053-10.661-111.819 1.353-166.683 11.35-55.606 26.667-103.188 63.813-153.268l122.604 103.899c-31.688 52.247-43.865 114.021-34.376 174.385s40.031 115.423 86.221 155.426c0.275 0.206 28.662 25.086 28.662 25.086l84.839-98.052 119.441 102.822c7.172 5.615 16.229 8.253 25.294 7.369s17.442-5.224 23.393-12.119c5.951-6.896 9.020-15.817 8.57-24.914s-4.384-17.673-10.986-23.948l-119.234-102.683 77.18-89.2 119.005 102.454c3.509 3.178 7.617 5.623 12.084 7.189s9.204 2.223 13.929 1.93c4.724-0.293 9.343-1.529 13.583-3.634s8.015-5.039 11.104-8.627 5.428-7.758 6.88-12.264c1.453-4.507 1.988-9.257 1.575-13.974s-1.766-9.302-3.979-13.488c-2.213-4.185-5.24-7.886-8.906-10.883l-118.913-102.34 83.945-97.020-28.776-24.925c-45.495-39.37-103.284-61.657-163.43-63.029s-118.892 18.254-166.135 55.508l-155.461-132.608c-9.906-8.553-21.692-17.314-33.501-17.314-7.658 0-14.651 3.601-20.797 10.686l-0.802 0.941c-2.086 2.454-8.14 9.539-8.805 10.25l-1.513 1.674-3.187 3.578c-1.992 2.138-3.859 4.389-5.595 6.741-5.401 5.937-10.404 12.227-14.972 18.826l-4.93 6.88c-41.127 56.675-70.081 121.249-85.041 189.658s-15.602 139.175-1.885 207.844c12.598 66.303 38.296 129.426 75.592 185.67 37.295 56.247 85.437 104.486 141.607 141.895s119.238 63.233 185.511 75.964 134.422 12.107 200.452-1.827c64.509-13.004 125.973-38.104 181.143-73.977l9.584-6.214c50.652-34.718 92.2-77.965 127.879-127.816 39.569-56.923 66.931-121.419 80.371-189.429 14.647-65.642 15.932-133.565 3.765-199.711-12.173-66.148-37.542-129.167-74.596-185.294z"></path>
</svg>
