<!-- Generated by IcoMoon.io -->
<svg version="1.1" xmlns="http://www.w3.org/2000/svg" width="1024" height="1024" viewBox="0 0 1024 1024">

<path fill="currentColor" d="M455.479 0.002c-72.634 0.007-144.212 17.382-208.765 50.678s-120.207 81.547-162.319 140.725c-42.112 59.179-69.461 127.571-79.768 199.469s-3.267 145.22 20.528 213.843c23.795 68.629 63.656 130.569 116.257 180.656s116.418 86.87 186.126 107.277c69.708 20.406 143.285 23.85 214.593 10.039s138.277-44.478 195.33-89.435l195.704 195.704c10.104 9.76 23.643 15.161 37.69 15.041 14.054-0.122 27.495-5.759 37.426-15.69 9.939-9.939 15.576-23.378 15.698-37.426 0.122-14.054-5.28-27.587-15.041-37.698l-195.704-195.704c52.945-67.164 85.906-147.882 95.122-232.909 9.21-85.027-5.694-170.93-43.027-247.879-37.326-76.949-95.565-141.834-168.045-187.23-72.487-45.395-156.282-69.468-241.807-69.463zM107.157 455.501c0-92.381 36.698-180.979 102.022-246.301s153.921-102.022 246.301-102.022c92.381 0 180.98 36.698 246.301 102.022s102.024 153.921 102.024 246.301c0 92.381-36.705 180.978-102.024 246.299-65.321 65.328-153.921 102.024-246.301 102.024s-180.979-36.697-246.301-102.024c-65.324-65.321-102.022-153.917-102.022-246.299z"></path>
</svg>
