<!-- Generated by IcoMoon.io -->
<svg version="1.1" xmlns="http://www.w3.org/2000/svg" width="1024" height="1024" viewBox="0 0 1024 1024">

<path fill="currentColor" d="M511.785 383.999c50.922 0 99.756-20.228 135.766-56.235 36.004-36.008 56.235-84.843 56.235-135.765s-20.231-99.758-56.235-135.765c-36.010-36.008-84.845-56.235-135.766-56.235s-99.758 20.228-135.765 56.235c-36.008 36.008-56.235 84.843-56.235 135.765s20.228 99.758 56.235 135.765c36.008 36.008 84.843 56.235 135.765 56.235zM93.543 799.614c-5.911 15.865-6.551 33.216-1.823 49.473 4.726 16.249 14.568 30.549 28.063 40.768 112.077 87.132 250.040 134.344 392.002 134.144 147.84 0 284.033-50.176 392.386-134.4 27.52-21.312 38.656-57.792 26.112-90.24-32.498-84.602-89.885-157.369-164.587-208.691-74.702-51.316-163.215-78.776-253.849-78.755s-179.13 27.522-253.811 78.877c-74.681 51.349-132.035 124.146-164.493 208.762v0.065z"></path>
</svg>
