<!-- Generated by IcoMoon.io -->
<svg version="1.1" xmlns="http://www.w3.org/2000/svg" width="1024" height="1024" viewBox="0 0 1024 1024">

<path fill="currentColor" d="M409.598 651.348l265.729-139.349-265.729-139.349v278.698zM1001.471 287.648c6.656 21.831 11.264 51.095 14.339 88.254 3.581 37.16 5.118 69.21 5.118 97.079l3.070 39.018c0 101.725-8.189 176.509-22.528 224.351-12.801 41.804-42.496 68.745-88.575 80.358-24.065 6.038-68.095 10.219-135.68 13.006-66.562 3.252-127.49 4.645-183.81 4.645l-81.408 2.788c-214.529 0-348.161-7.432-400.897-20.437-46.080-11.612-75.776-38.554-88.576-80.358-6.655-21.831-11.264-51.095-14.336-88.254-3.584-37.16-5.121-69.21-5.121-97.079l-3.072-39.018c0-101.725 8.192-176.509 22.528-224.351 12.8-41.804 42.496-68.745 88.576-80.358 24.064-6.038 68.097-10.219 135.681-13.006 66.56-3.252 127.49-4.645 183.81-4.645l81.408-2.788c214.527 0 348.158 7.432 400.897 20.437 46.079 11.612 75.774 38.554 88.575 80.358z"></path>
</svg>
